<svg width="55" height="56" fill="none" xmlns="http://www.w3.org/2000/svg"><path d="M23.929 32.536v-1.929H26.5v-5.786h-.04c-.322.503-.623.724-1.105 1.145l-1.547-1.607 2.973-2.752h2.29v9h2.572v1.929h-7.714zm10.285-5.143c0-3.656-2.21-8.357-6.428-8.357-4.219 0-6.429 4.7-6.429 8.357 0 3.656 2.21 8.357 6.429 8.357 4.218 0 6.428-4.7 6.428-8.357zM44.5 32.536a5.153 5.153 0 0 0-5.143 5.143H16.214a5.153 5.153 0 0 0-5.143-5.143V22.25a5.153 5.153 0 0 0 5.143-5.143h23.143A5.153 5.153 0 0 0 44.5 22.25v10.286zm2.571-16.715c0-.703-.582-1.285-1.285-1.285h-36c-.703 0-1.286.582-1.286 1.285v23.143c0 .703.583 1.286 1.286 1.286h36c.703 0 1.285-.583 1.285-1.286V15.821z" fill="#fff"/></svg>