<svg width="55" height="56" fill="none" xmlns="http://www.w3.org/2000/svg"><path d="M37.786 35.964a2.59 2.59 0 0 1-2.572 2.572 2.59 2.59 0 0 1-2.571-2.572 2.59 2.59 0 0 1 2.571-2.571 2.59 2.59 0 0 1 2.572 2.571zM22.357 20.536a2.59 2.59 0 0 1-2.571 2.571 2.59 2.59 0 0 1-2.572-2.571 2.59 2.59 0 0 1 2.572-2.572 2.59 2.59 0 0 1 2.571 2.572zM42.93 35.964a7.716 7.716 0 0 0-7.715-7.714 7.716 7.716 0 0 0-7.714 7.714 7.716 7.716 0 0 0 7.714 7.715 7.716 7.716 0 0 0 7.715-7.715zM41 14.107c0-.703-.583-1.286-1.286-1.286H36.5c-.402 0-.783.201-1.024.523L14.26 41.629c-.16.221-.26.483-.26.764 0 .703.582 1.286 1.285 1.286H18.5c.402 0 .784-.201 1.025-.523l21.214-28.285c.16-.222.261-.483.261-.764zm-13.5 6.429a7.716 7.716 0 0 0-7.714-7.715 7.716 7.716 0 0 0-7.715 7.715 7.716 7.716 0 0 0 7.715 7.714 7.716 7.716 0 0 0 7.714-7.714z" fill="#fff"/></svg>